<svg xmlns="http://www.w3.org/2000/svg" width="512" height="512" viewBox="0 0 512 512" version="1.1"><path d="M 112.204 264.250 C 112.498 301.270, 112.515 301.530, 114.899 306.332 C 125.940 328.575, 162.731 344.212, 218 350.154 C 234.087 351.883, 278.717 351.886, 294.500 350.158 C 349.468 344.139, 386.101 328.492, 397.101 306.332 C 399.485 301.531, 399.502 301.260, 399.806 264.250 C 399.974 243.762, 399.820 227, 399.464 227 C 399.107 227, 397.716 227.864, 396.373 228.921 C 390.051 233.894, 364.848 242.133, 341.441 246.878 C 308.999 253.454, 289.007 255.439, 255.500 255.409 C 218.895 255.376, 187.200 251.596, 155.500 243.482 C 135.826 238.446, 116.435 231.130, 114.512 228.019 C 112.242 224.347, 111.927 229.298, 112.204 264.250" stroke="none" fill="#9c6453" fill-rule="evenodd"/><path d="M 240 96.612 C 209.214 100.403, 179.525 114.239, 157.629 135 C 133.395 157.979, 119.184 184.526, 113.527 217.389 C 111.788 227.496, 111.546 226.972, 120 231.411 C 136.654 240.154, 174.574 249.177, 213.500 253.658 C 231.790 255.763, 276.783 256.055, 294 254.180 C 339.170 249.261, 382.261 238.616, 396.500 228.860 C 400.319 226.243, 400.317 225.402, 396.465 207.775 C 390.925 182.429, 378.655 159.954, 359.534 140.135 C 339.446 119.313, 316.085 106.180, 287 99.358 C 278.660 97.403, 273.106 96.822, 260 96.539 C 250.925 96.342, 241.925 96.375, 240 96.612 M 105.500 247.417 C 71.368 259.921, 46.565 278.072, 37.234 297.378 C 32.903 306.339, 31.665 312.810, 32.227 323.558 C 32.649 331.615, 33.201 333.891, 36.334 340.488 C 41.135 350.598, 47.824 358.919, 57.148 366.378 C 86.794 390.097, 134.684 405.795, 201.500 413.696 C 213.546 415.121, 224.376 415.465, 256.500 415.444 C 291.776 415.420, 298.676 415.151, 314.925 413.164 C 399.852 402.778, 457.049 377.481, 474.862 342.429 C 478.701 334.872, 479.948 329.393, 479.964 320 C 479.985 307.288, 476.078 296.972, 466.822 285.298 C 456.036 271.695, 432.020 256.505, 407.319 247.663 L 400.138 245.093 399.817 273.296 C 399.505 300.723, 399.430 301.633, 397.099 306.332 C 386.110 328.488, 349.469 344.139, 294.500 350.158 C 278.717 351.886, 234.087 351.883, 218 350.154 C 162.731 344.212, 125.940 328.575, 114.899 306.332 C 112.582 301.665, 112.483 300.541, 112 273.360 L 111.500 245.219 105.500 247.417" stroke="none" fill="#fbcb43" fill-rule="evenodd"/></svg>